<svg xmlns="http://www.w3.org/2000/svg" xmlns:xlink="http://www.w3.org/1999/xlink" width="500" zoomAndPan="magnify" viewBox="0 0 375 374.999991" height="500" preserveAspectRatio="xMidYMid meet" version="1.0"><defs><g/><clipPath id="8c4b7fd74c"><path d="M 187.496094 130.917969 L 230.453125 130.917969 L 230.453125 179.675781 L 187.496094 179.675781 Z M 187.496094 130.917969 " clip-rule="nonzero"/></clipPath><clipPath id="0e68bbc435"><path d="M 102 190.160156 L 273 190.160156 L 273 191.660156 L 102 191.660156 Z M 102 190.160156 " clip-rule="nonzero"/></clipPath></defs><path fill="#ff8200" d="M 195.050781 147.386719 C 195.136719 147.226562 195.253906 147.066406 195.488281 146.945312 L 198.890625 144.980469 C 198.9375 144.953125 198.988281 144.933594 199.042969 144.921875 C 199.0625 144.917969 199.078125 144.917969 199.09375 144.914062 C 199.128906 144.90625 199.164062 144.902344 199.203125 144.902344 L 199.207031 144.902344 C 199.308594 144.902344 199.40625 144.929688 199.496094 144.980469 L 207.148438 149.402344 L 207.15625 149.386719 L 207.769531 149.746094 C 208.515625 150.175781 209.433594 150.175781 210.179688 149.746094 L 213.523438 147.816406 C 213.710938 147.707031 213.824219 147.503906 213.824219 147.289062 C 213.824219 147.074219 213.710938 146.878906 213.523438 146.769531 L 210.179688 144.84375 C 209.433594 144.410156 208.515625 144.410156 207.769531 144.84375 L 206.964844 145.304688 C 206.78125 145.414062 206.554688 145.414062 206.367188 145.304688 L 203.25 143.507812 C 203.0625 143.398438 202.949219 143.203125 202.949219 142.988281 C 202.949219 142.773438 203.0625 142.574219 203.25 142.464844 L 207.769531 139.855469 C 208.515625 139.425781 209.433594 139.425781 210.179688 139.855469 L 221.257812 146.253906 C 222.0625 146.714844 222.0625 147.871094 221.257812 148.332031 L 210.179688 154.730469 C 209.433594 155.160156 208.515625 155.160156 207.769531 154.730469 L 199.207031 149.785156 L 199.207031 161.050781 L 201.960938 162.644531 L 207.769531 166.007812 C 207.957031 166.117188 208.152344 166.199219 208.355469 166.253906 C 208.972656 166.414062 209.625 166.328125 210.179688 166.007812 L 218.144531 161.410156 C 218.515625 161.195312 218.742188 160.800781 218.742188 160.371094 L 218.742188 153.800781 C 218.742188 153.589844 218.859375 153.390625 219.046875 153.285156 L 222.160156 151.484375 C 222.347656 151.375 222.574219 151.375 222.761719 151.484375 C 222.945312 151.589844 223.0625 151.789062 223.0625 152.003906 L 223.0625 162.863281 C 223.0625 163.292969 222.832031 163.691406 222.460938 163.90625 L 210.179688 170.996094 C 209.820312 171.203125 209.410156 171.316406 208.992188 171.320312 L 208.984375 171.320312 C 208.925781 171.320312 208.863281 171.3125 208.804688 171.308594 C 208.765625 171.300781 208.71875 171.300781 208.671875 171.300781 C 208.609375 171.289062 208.550781 171.277344 208.488281 171.261719 C 208.445312 171.253906 208.402344 171.246094 208.363281 171.238281 C 208.296875 171.222656 208.234375 171.199219 208.167969 171.171875 C 208.132812 171.160156 208.097656 171.152344 208.0625 171.136719 C 207.964844 171.097656 207.867188 171.050781 207.773438 170.996094 L 197.175781 164.878906 L 195.496094 163.925781 C 195.121094 163.714844 194.886719 163.3125 194.886719 162.878906 L 194.886719 147.988281 C 194.886719 147.773438 194.945312 147.5625 195.050781 147.386719 " fill-opacity="1" fill-rule="nonzero"/><g clip-path="url(#8c4b7fd74c)"><path fill="#ff8200" d="M 207.804688 136.257812 C 208.160156 136.050781 208.5625 135.941406 208.976562 135.9375 C 209.386719 135.941406 209.789062 136.050781 210.148438 136.257812 L 224.949219 144.800781 C 225.691406 145.230469 226.148438 146.019531 226.148438 146.878906 L 226.148438 163.96875 C 226.148438 164.828125 225.691406 165.621094 224.949219 166.046875 L 210.148438 174.589844 C 209.785156 174.804688 209.375 174.914062 208.960938 174.914062 C 208.542969 174.914062 208.128906 174.804688 207.769531 174.59375 L 193.03125 166.085938 C 192.289062 165.65625 191.832031 164.867188 191.832031 164.007812 L 191.832031 159.070312 C 191.832031 158.855469 191.71875 158.65625 191.535156 158.550781 L 188.394531 156.738281 C 188.214844 156.632812 187.980469 156.632812 187.796875 156.738281 C 187.609375 156.847656 187.496094 157.046875 187.496094 157.261719 L 187.496094 166.457031 C 187.5 166.847656 187.59375 167.234375 187.78125 167.582031 C 187.828125 167.808594 188.074219 168.074219 188.421875 168.351562 C 188.429688 168.355469 188.441406 168.363281 188.449219 168.371094 C 189.332031 169.058594 190.800781 169.769531 191.0625 169.917969 L 207.769531 179.566406 C 208.140625 179.78125 208.570312 179.890625 209 179.886719 L 209.019531 179.886719 C 209.414062 179.875 209.804688 179.765625 210.148438 179.566406 L 229.253906 168.535156 C 230 168.105469 230.453125 167.3125 230.453125 166.457031 L 230.453125 144.394531 C 230.453125 144.007812 230.40625 143.613281 230.238281 143.28125 C 230.214844 143.199219 229.984375 142.773438 229.503906 142.425781 C 229.324219 142.304688 229.003906 142.144531 228.710938 141.96875 L 210.203125 131.285156 C 209.828125 131.070312 209.40625 130.960938 208.976562 130.964844 C 208.542969 130.960938 208.121094 131.070312 207.75 131.285156 L 190.671875 141.144531 C 190.632812 141.167969 190.601562 141.195312 190.570312 141.222656 L 190.351562 141.34375 C 189.773438 141.65625 188.859375 142.125 188.371094 142.5 L 188.332031 142.527344 C 188.324219 142.535156 188.3125 142.539062 188.308594 142.542969 C 188.292969 142.558594 188.28125 142.574219 188.261719 142.585938 C 188.082031 142.738281 187.925781 142.914062 187.808594 143.117188 C 187.804688 143.117188 187.804688 143.121094 187.800781 143.125 L 187.804688 143.125 C 187.601562 143.457031 187.496094 143.839844 187.496094 144.226562 L 187.496094 152.304688 C 187.496094 152.519531 187.609375 152.71875 187.796875 152.824219 L 190.933594 154.640625 C 191.121094 154.742188 191.347656 154.742188 191.535156 154.640625 C 191.71875 154.53125 191.832031 154.332031 191.832031 154.117188 L 191.832031 146.832031 C 191.832031 145.976562 192.292969 145.179688 193.035156 144.753906 Z M 207.804688 136.257812 " fill-opacity="1" fill-rule="nonzero"/></g><path fill="#ff8200" d="M 115.679688 141.738281 L 125.367188 172.800781 L 123.296875 180.015625 L 113.464844 180.015625 L 101.585938 141.738281 Z M 134.808594 141.738281 L 127.023438 167.410156 L 118.84375 141.738281 Z M 134.808594 141.738281 " fill-opacity="1" fill-rule="nonzero"/><path fill="#ff8200" d="M 159.71875 180.015625 L 146.109375 180.015625 L 146.109375 141.738281 L 159.71875 141.738281 Z M 163.15625 180.015625 L 163.15625 141.765625 C 163.34375 141.738281 163.550781 141.722656 163.769531 141.714844 C 163.984375 141.707031 164.292969 141.699219 164.691406 141.699219 C 167.84375 141.699219 170.378906 142.53125 172.296875 144.1875 C 174.226562 145.839844 175.191406 147.992188 175.191406 150.648438 C 175.191406 153.304688 174.347656 155.382812 172.664062 156.871094 C 170.988281 158.367188 168.457031 159.300781 165.070312 159.671875 C 168.265625 160.039062 170.753906 161.117188 172.546875 162.914062 C 174.34375 164.707031 175.242188 167.015625 175.242188 169.84375 C 175.242188 172.847656 174.203125 175.296875 172.128906 177.1875 C 170.0625 179.074219 167.355469 180.015625 164.015625 180.015625 Z M 163.15625 180.015625 " fill-opacity="1" fill-rule="nonzero"/><path fill="#ff8200" d="M 240.570312 180.015625 L 247.808594 164.4375 L 254.125 180.015625 Z M 273.347656 141.738281 L 266.109375 157.277344 L 259.792969 141.738281 Z M 256.613281 141.738281 L 272.085938 180.015625 L 257.304688 180.015625 L 241.832031 141.738281 Z M 256.613281 141.738281 " fill-opacity="1" fill-rule="nonzero"/><g clip-path="url(#0e68bbc435)"><path fill="#ff8200" d="M 187.5 191.707031 L 102.421875 190.933594 L 187.5 190.160156 L 272.578125 190.933594 Z M 187.5 191.707031 " fill-opacity="1" fill-rule="nonzero"/></g><g fill="#ff8200" fill-opacity="1"><g transform="translate(127.436971, 211.279616)"><g><path d="M 3.746094 0 L 14.980469 0 L 14.980469 -4.097656 L 15.609375 -4.097656 C 15.933594 -4.097656 16.242188 -3.820312 16.242188 -3.253906 L 16.242188 0 L 18.40625 0 L 18.40625 -3.269531 C 18.40625 -5.1875 17.023438 -6.15625 15.640625 -6.171875 C 14.691406 -6.171875 14.261719 -5.910156 12.800781 -5.910156 L 12.800781 -2.179688 L -0.582031 -2.179688 L -0.613281 -2.058594 C 2.226562 -1.796875 1.597656 0 3.746094 0 Z M 3.746094 0 "/></g></g></g><g fill="#ff8200" fill-opacity="1"><g transform="translate(145.831882, 211.279616)"><g><path d="M -0.136719 0 L 9.671875 0 L 10.589844 -2.179688 C 8.441406 -2.179688 1.226562 -5.035156 3.054688 -8.167969 L 2.855469 -8.273438 L 1.75 -6.203125 C 1.242188 -5.25 1.042969 -4.207031 1.949219 -3.53125 C 3.039062 -2.71875 4.496094 -2.300781 5.34375 -2.179688 L -0.136719 -2.179688 C -0.675781 -2.179688 -1.074219 -1.78125 -1.074219 -1.242188 L -1.074219 -0.9375 C -1.074219 -0.398438 -0.675781 0 -0.136719 0 Z M -0.136719 0 "/></g></g></g><g fill="#ff8200" fill-opacity="1"><g transform="translate(155.343844, 211.279616)"><g><path d="M -0.136719 0 L 3.578125 0 L 3.578125 -16.730469 L 3.453125 -16.761719 C 3.347656 -9.300781 1.414062 -11.480469 1.414062 -9.332031 L 1.414062 -2.179688 L -0.136719 -2.179688 C -0.675781 -2.179688 -1.074219 -1.78125 -1.074219 -1.242188 L -1.074219 -0.9375 C -1.074219 -0.398438 -0.675781 0 -0.136719 0 Z M -0.136719 0 "/></g></g></g><g fill="#ff8200" fill-opacity="1"><g transform="translate(159.455466, 211.279616)"><g><path d="M 0.539062 -0.015625 L 2.71875 -0.015625 L 2.71875 -16.746094 L 2.578125 -16.777344 C 2.488281 -9.316406 0.539062 -11.496094 0.539062 -9.347656 Z M 0.539062 -0.015625 "/></g></g></g><g fill="#ff8200" fill-opacity="1"><g transform="translate(162.170977, 211.279616)"><g><path d="M 14.152344 1.089844 L 14.152344 -2.027344 C 14.152344 -4.207031 12.832031 -5.296875 10.882812 -5.296875 L 7.921875 -5.296875 C 6.125 -5.296875 4.726562 -4.574219 3.578125 -3.269531 C 3.578125 -3.269531 3.59375 -5.296875 3.578125 -5.296875 C 2.117188 -5.296875 1.414062 -6.386719 1.414062 -6.386719 L 1.414062 -3.253906 C 1.414062 -2.71875 1.042969 -2.179688 0.324219 -2.179688 L -0.136719 -2.179688 C -0.675781 -2.179688 -1.074219 -1.78125 -1.074219 -1.242188 L -1.074219 -0.9375 C -1.074219 -0.398438 -0.675781 0 -0.136719 0 L 0.324219 0 C 1.242188 0 2.117188 -0.214844 2.503906 -2.179688 C 2.625 -0.613281 3.746094 0 4.667969 0 L 11.972656 0 C 13.429688 0 14.152344 1.089844 14.152344 1.089844 Z M 4.207031 -2.179688 C 4.007812 -2.179688 3.683594 -2.226562 3.546875 -2.289062 C 4.683594 -2.671875 5.386719 -2.808594 7.9375 -2.808594 L 10.882812 -2.808594 C 11.4375 -2.808594 11.972656 -2.457031 11.972656 -2.179688 Z M 4.207031 -2.179688 "/></g></g></g><g fill="#ff8200" fill-opacity="1"><g transform="translate(176.853151, 211.279616)"><g/></g></g><g fill="#ff8200" fill-opacity="1"><g transform="translate(181.148874, 211.279616)"><g><path d="M 3.746094 0 L 14.980469 0 L 14.980469 -4.097656 L 15.609375 -4.097656 C 15.933594 -4.097656 16.242188 -3.820312 16.242188 -3.253906 L 16.242188 -1.398438 C 17.421875 -1.398438 18.113281 -0.84375 18.265625 0 L 18.40625 0 L 18.40625 -3.269531 C 18.40625 -5.1875 17.023438 -6.15625 15.640625 -6.171875 C 14.691406 -6.171875 14.261719 -5.910156 12.800781 -5.910156 L 12.800781 -2.179688 L -0.582031 -2.179688 L -0.613281 -2.058594 C 2.226562 -1.796875 1.597656 0 3.746094 0 Z M 3.746094 0 "/></g></g></g><g fill="#ff8200" fill-opacity="1"><g transform="translate(200.080753, 211.279616)"><g><path d="M 1.734375 -5.464844 C 2.101562 -5.097656 2.625 -5.097656 2.992188 -5.464844 L 3.085938 -5.558594 C 3.453125 -5.925781 3.453125 -6.445312 3.085938 -6.816406 L 2.992188 -6.90625 C 2.625 -7.277344 2.101562 -7.277344 1.734375 -6.90625 L 1.640625 -6.816406 C 1.273438 -6.445312 1.273438 -5.925781 1.640625 -5.558594 Z M -0.859375 2.902344 C 2.410156 3.332031 3.484375 1.488281 3.484375 0 C 3.484375 0 3.5 -3.421875 3.484375 -3.40625 L 1.320312 -2.179688 L 1.320312 0.152344 C 1.320312 0.9375 0.890625 1.335938 -0.351562 0.9375 L -1.855469 2.578125 L -1.855469 2.6875 C -1.566406 2.777344 -1.210938 2.855469 -0.859375 2.902344 Z M -0.859375 2.902344 "/></g></g></g><g fill="#ff8200" fill-opacity="1"><g transform="translate(204.10033, 211.279616)"><g><path d="M 0.539062 -0.015625 L 2.71875 -0.015625 L 2.71875 -16.746094 L 2.578125 -16.777344 C 2.488281 -9.316406 0.539062 -11.496094 0.539062 -9.347656 Z M 0.539062 -0.015625 "/></g></g></g><g fill="#ff8200" fill-opacity="1"><g transform="translate(206.815841, 211.279616)"><g><path d="M 9.976562 -7.476562 C 9.714844 -4.636719 7.9375 -5.265625 7.9375 -3.117188 L 7.9375 -2.179688 C 7 -2.179688 6.847656 -2.488281 6.847656 -3.117188 L 6.847656 -6.523438 L 6.707031 -6.539062 C 6.460938 -3.699219 4.667969 -4.34375 4.667969 -2.195312 L 4.667969 -2.179688 C 3.882812 -2.179688 3.578125 -2.488281 3.578125 -3.117188 L 3.578125 -5.585938 L 3.453125 -5.617188 C 3.332031 -4.238281 2.425781 -2.179688 0.183594 -2.179688 L -0.136719 -2.179688 C -0.675781 -2.179688 -1.074219 -1.78125 -1.074219 -1.242188 L -1.074219 -0.9375 C -1.074219 -0.398438 -0.675781 0 -0.136719 0 L 0.476562 0 C 1.398438 0 2.273438 -0.335938 2.65625 -2.179688 C 2.777344 -0.335938 3.898438 0 4.820312 0 L 10.101562 0 L 10.101562 -7.460938 Z M 9.976562 -7.476562 "/></g></g></g><g fill="#ff8200" fill-opacity="1"><g transform="translate(217.447757, 211.279616)"><g/></g></g><g fill="#ff8200" fill-opacity="1"><g transform="translate(221.743479, 211.279616)"><g><path d="M 6.324219 -11.191406 C 6.214844 -5.28125 4.265625 -7.445312 4.265625 -5.296875 L 3.808594 -5.296875 C 1.628906 -5.296875 0.539062 -3.667969 0.539062 -2.042969 L 0.539062 0 L 3.636719 0 C 4.4375 0 4.773438 -0.183594 5.234375 -2.179688 C 5.28125 -0.183594 5.542969 0 6.445312 0 L 6.445312 -11.160156 Z M 3.746094 -2.179688 L 3.300781 -2.179688 C 3.300781 -2.503906 3.515625 -2.808594 3.945312 -2.808594 L 4.265625 -2.808594 C 4.265625 -2.394531 4.066406 -2.179688 3.746094 -2.179688 Z M 3.746094 -2.179688 "/></g></g></g><g fill="#ff8200" fill-opacity="1"><g transform="translate(228.187063, 211.279616)"><g><path d="M 7.046875 -7.015625 C 6.785156 -4.175781 4.988281 -4.804688 4.988281 -2.65625 L 4.988281 -2.179688 L -0.136719 -2.179688 C -0.675781 -2.179688 -1.074219 -1.78125 -1.074219 -1.242188 L -1.074219 -0.9375 C -1.074219 -0.398438 -0.675781 0 -0.136719 0 L 4.328125 0 C 5.125 0 5.464844 -0.183594 6.078125 -2.179688 C 5.972656 -0.183594 6.230469 0 7.136719 0 L 7.167969 0 L 7.167969 -7 Z M 5.082031 1.933594 C 4.710938 1.566406 4.191406 1.566406 3.820312 1.933594 L 3.730469 2.027344 C 3.363281 2.394531 3.363281 2.917969 3.730469 3.285156 L 3.820312 3.378906 C 4.191406 3.746094 4.710938 3.746094 5.082031 3.378906 L 5.171875 3.285156 C 5.542969 2.917969 5.542969 2.394531 5.171875 2.027344 Z M 5.082031 1.933594 "/></g></g></g><g fill="#ff8200" fill-opacity="1"><g transform="translate(235.351717, 211.279616)"><g><path d="M 6.109375 -2.179688 C 8.519531 -3.101562 8.273438 -3.714844 7.0625 -6.660156 C 7.03125 -6.648438 6.984375 -6.648438 6.9375 -6.632812 C 7.089844 -5.910156 6.847656 -5.25 6.339844 -4.652344 C 5.464844 -3.621094 3.667969 -3.652344 2.761719 -4.835938 C 2.347656 -5.371094 2.164062 -5.957031 2.300781 -6.632812 C 2.257812 -6.648438 2.210938 -6.648438 2.179688 -6.660156 C 0.980469 -3.777344 0.738281 -3.117188 3.132812 -2.179688 L -0.292969 -2.179688 C -0.738281 -2.179688 -1.074219 -1.84375 -1.074219 -1.398438 L -1.074219 -0.78125 C -1.074219 -0.335938 -0.738281 0 -0.292969 0 L 8.152344 0 L 8.152344 -2.179688 Z M 6.109375 -2.179688 "/></g></g></g><g fill="#ff8200" fill-opacity="1"><g transform="translate(243.49825, 211.279616)"><g><path d="M 9.148438 0.460938 C 9.625 -0.183594 10.144531 -1.425781 10.746094 -2.070312 C 9.300781 -2.59375 1.382812 -5.035156 3.207031 -8.167969 L 3.007812 -8.273438 L 1.902344 -6.203125 C 1.398438 -5.25 1.199219 -4.207031 2.101562 -3.53125 C 3.191406 -2.71875 4.652344 -2.300781 5.496094 -2.179688 L -0.136719 -2.179688 C -0.675781 -2.179688 -1.074219 -1.78125 -1.074219 -1.242188 L -1.074219 -0.9375 C -1.074219 -0.398438 -0.675781 0 -0.136719 0 L 3.40625 0 C 5.328125 0 7.230469 0 9.148438 0.460938 Z M 3.792969 3.390625 C 4.160156 3.761719 4.683594 3.761719 5.050781 3.390625 L 5.140625 3.300781 C 5.511719 2.933594 5.511719 2.410156 5.140625 2.042969 L 5.050781 1.949219 C 4.683594 1.582031 4.160156 1.582031 3.792969 1.949219 L 3.699219 2.042969 C 3.332031 2.410156 3.332031 2.933594 3.699219 3.300781 Z M 3.792969 3.390625 "/></g></g></g></svg>